**ABCDEFGHIJKLMNOPQRSTUVWXYZabcdefghijklmnopqrstuvwxyz**************************
**PARASOLID !"#$%&'()*+,-./:;<=>?@[\]^_`{|}~0123456789**************************
**PART1;
MC=AMD64;
MC_MODEL=AMD64 Family 25 Model 33 Stepping 0, AuthenticAMD;
MC_ID=unknown;
OS=Windows_NT;
OS_RELEASE=unknown;
FRU=Parasolid Version 34.1, build 254,  2-10-2023;
APPL=SOLIDWORKS 2023-2023138;
SITE=;
USER=unknown;
FORMAT=text;
GUISE=transmit;
KEY=birleþtirme vidasý orta;
FILE=birleþtirme vidasý orta.x_t;
DATE=Sun Jan 21 22:14:22 2024;
**PART2;
SCH=SCH_3401254_34101;
USFLD_SIZE=0;
**PART3;
**END_OF_HEADER*****************************************************************
T51 : TRANSMIT FILE created by modeller version 340125417 SCH_1100000_110040 12
 1 133 2 3 0 0 0 0 1e3 1e-8 0 4 0 1 0 1 1 5 6 7 0 8 9 0 81 2 2 108 10 1 11 0 0 0
 12 0 70 3 0 1 0 0 4 6 20 8 13 13 1 T13 5 31 0 1 0 14 0 0 15 0 53 6 93 0 16 17 0
 0 +0 0 .0025 .0025 0 0 1 1 0 0 31 7 70 0 9 18 0 0 +0 0 .0345 0 0 -1 -1 0 0 .002
5 19 8 9 0 1 15 0 19 V16 9 67 0 ?20 0 21 7 0 0 1 17 20 0 22 20 20 0 23 9 0 0 +16
 21 60 0 ?24 9 0 18 0 0 1 17 24 0 25 24 24 0 26 21 0 0 +31 18 63 0 21 0 7 0 -0 0
 .0025 0 0 -1 -1 0 0 .0025 15 25 61 0 24 14 0 17 26 0 27 26 26 0 24 21 0 0 -15 2
7 89 0 26 16 0 14 16 88 28 ?0 29 27 5 6 +0 0 0 29 19 81 1 28 129 30 16 31 0 0 32
 33 14 29 79 32 ?16 14 34 5 17 +0 0 16 14 19 13 19 10 0 0 0 0 0 0 8 14 14 14 27
 35 ?29 0 22 5 36 -0 0 29 0 19 81 1 35 133 30 14 37 0 32 0 38 15 22 68 0 20 14 2
5 51 36 30 0 14 0 17 0 -0 0 .037 0 0 -1 .0025 -1 0 0 53 17 84 0 29 36 6 0 +0 0 .
0345 .0025 0 0 1 1 0 0 80 1 30 39 40 9000 1 1 1 1 1 1 1 1 FFFFTFTFFFFFFF1 81 3 3
7 132 41 14 42 35 43 0 44 0 0 81 1 32 131 30 29 43 0 28 35 45 82 1 38 248840310
 81 3 43 130 41 29 46 32 31 37 47 0 0 82 1 45 -360120202 80 3 41 48 49 9000 0 0
 0 0 3 5 0 0 FFFFTFFFFFFFFF1 1 1 81 1 46 115 50 29 0 43 42 51 52 81 3 31 128 41
 16 51 28 0 43 53 0 0 82 6 47 0 -1130840135 31083677 0 0 0 81 1 51 116 50 16 0 3
1 46 0 54 82 6 53 0 -1130840135 31083677 0 0 0 80 1 50 0 55 8001 0 0 0 0 3 5 0 0
 FFFFTFTFFFFFFF2 83 3 54 .792156862745098 .819607843137255 .933333333333333 79 1
5 55 SDL/TYSA_COLOUR81 1 42 114 50 14 0 37 0 46 56 83 3 52 .792156862745098 .819
607843137255 .933333333333333 83 3 56 .792156862745098 .819607843137255 .9333333
33333333 79 18 49 DOWNSTREAM_FACE_ID82 6 44 0 -1130840135 31083677 0 0 0 79 14 4
0 SWEntUnchanged15 34 80 0 23 29 0 17 23 0 34 23 23 0 20 9 0 0 -82 1 33 -3592682
34 19 15 32 0 1 0 8 5 S74 20 13 6 0 37 57 35 11 2 51 0 0 0 0 0 0 0 0 0 0 0 0 0 0
 81 2 57 52 58 1 0 11 0 0 59 0 81 1 11 103 60 1 57 2 0 0 61 80 1 60 62 63 9000 1
 1 1 1 1 1 1 1 FFTFFFFFFFFFFF1 82 1 61 3765 79 10 63 BODY_MATCH80 2 58 64 65 900
0 0 0 0 0 3 5 0 0 FFTFTTTFFTFFFF3 3 84 7 59 Radyus579 21 65 SWIMPLICITBODYNAME_I
D80 2 10 66 67 8004 0 0 0 0 3 5 0 0 FFTFFFFFFFFFFF2 3 83 1 12 1 79 16 67 SDL/TYS
A_DENSITY1 0 
